<svg id="Layer_1" data-name="Layer 1" xmlns="http://www.w3.org/2000/svg" viewBox="0 0 191 107.81"><defs><style>.cls-1{fill:#fff;stroke:#1d1c1a;stroke-miterlimit:10;}.cls-2{fill:#f0989b;}.cls-3{fill:#e96768;}.cls-4{fill:#e64040;}</style></defs><path class="cls-1" d="M93.38,87.41" transform="translate(-0.5 -42.09)"/><path class="cls-2" d="M190.66,106.4a40.75,40.75,0,0,1-35.86,30.8c-.55-2.52,1.49-3.62,2.84-5a28.09,28.09,0,0,0,2.21-39.45,28.93,28.93,0,0,0-2.21-2.22,26.51,26.51,0,0,0-28.33-8.26c-2.31.61-4.68,1-6.78,1.71a14.63,14.63,0,0,1-16.47-5.33,25.85,25.85,0,0,1-3-3.76A78.21,78.21,0,0,0,87.55,55.1a4.87,4.87,0,0,1-2-3.14c12.75-10.45,26-8.74,35.32,4.65,6.24,9,6.78,9.35,17.56,6.42a41.64,41.64,0,0,1,32.13,2.25,41.6,41.6,0,0,1,19.53,26.3,25.5,25.5,0,0,1,1.35,6.35A30.93,30.93,0,0,1,190.66,106.4Z" transform="translate(-0.5 -42.09)"/><path class="cls-3" d="M152,138.23a27.76,27.76,0,0,1-30.78,0,80,80,0,0,1-9.49-6.29,11.86,11.86,0,0,0-14.91-.34l-12.21,8.2a52.83,52.83,0,0,1-74.1-12.09,53.75,53.75,0,0,1,12-74.66q1.84-1.35,3.8-2.52a51.76,51.76,0,0,1,58.24,1.09c.81,2.32-1,3.89-1.9,5.6a21.39,21.39,0,0,0,8.25,29,21.07,21.07,0,0,0,9.58,2.66,13.59,13.59,0,0,1,14.37,12.43,65.46,65.46,0,0,0,2.91,11.54,35.59,35.59,0,0,0,28.68,23A7.8,7.8,0,0,1,152,138.23Z" transform="translate(-0.5 -42.09)"/><path class="cls-4" d="M152,138.23a44.54,44.54,0,0,1-23.87-8.95A41,41,0,0,1,114,103.87c-1.7-8.6-2.44-13-15.19-13.66A22.62,22.62,0,0,1,80.3,59.75a78.34,78.34,0,0,1,4.27-7.92h.81a83.71,83.71,0,0,1,16.68,19.26C111.89,86.45,115,84.75,127.75,81.2a29.5,29.5,0,0,1,15.39-1,32.59,32.59,0,0,1,24.06,25.07,28.32,28.32,0,0,1-9.62,28.68,39.61,39.61,0,0,0-2.78,3.15Z" transform="translate(-0.5 -42.09)"/></svg>