<svg id="Layer_1" data-name="Layer 1" xmlns="http://www.w3.org/2000/svg" viewBox="0 0 35 19.76"><defs><style>.cls-1{fill:#fff;stroke:#1d1c1a;stroke-miterlimit:10;}.cls-2{fill:#f0989b;}.cls-3{fill:#e96768;}.cls-4{fill:#e64040;}</style></defs><path class="cls-1" d="M17.52,16.43" transform="translate(-0.5 -8.12)"/><path class="cls-2" d="M35.35,19.91a7.49,7.49,0,0,1-6.58,5.64c-.1-.46.28-.66.53-.93a5.18,5.18,0,0,0,0-7.63,4.88,4.88,0,0,0-5.2-1.52c-.42.12-.85.19-1.24.32a2.69,2.69,0,0,1-3-1,4.57,4.57,0,0,1-.54-.69,14.25,14.25,0,0,0-2.85-3.61.92.92,0,0,1-.36-.58c2.34-1.91,4.77-1.6,6.47.85,1.15,1.65,1.25,1.72,3.22,1.18a7.63,7.63,0,0,1,5.89.41,7.63,7.63,0,0,1,3.58,4.82,4.7,4.7,0,0,1,.24,1.16A5.44,5.44,0,0,1,35.35,19.91Z" transform="translate(-0.5 -8.12)"/><path class="cls-3" d="M28.26,25.74a5.06,5.06,0,0,1-5.63,0,14.54,14.54,0,0,1-1.74-1.15,2.18,2.18,0,0,0-2.74-.07L15.92,26A9.69,9.69,0,0,1,2.34,23.81a9.85,9.85,0,0,1,2.2-13.68c.22-.16.46-.32.69-.46a9.49,9.49,0,0,1,10.67.2c.15.42-.18.71-.34,1a3.92,3.92,0,0,0,1.51,5.31,3.87,3.87,0,0,0,1.75.49A2.49,2.49,0,0,1,21.46,19,11.85,11.85,0,0,0,22,21.08a6.54,6.54,0,0,0,5.26,4.21A1.4,1.4,0,0,1,28.26,25.74Z" transform="translate(-0.5 -8.12)"/><path class="cls-4" d="M28.26,25.74a8.2,8.2,0,0,1-4.37-1.64,7.54,7.54,0,0,1-2.59-4.66c-.31-1.57-.45-2.39-2.79-2.5a4.14,4.14,0,0,1-3.63-4.58,4.29,4.29,0,0,1,.24-1c.24-.5.5-1,.78-1.45h.15a15.12,15.12,0,0,1,3.06,3.52c1.8,2.82,2.37,2.51,4.71,1.86a5.4,5.4,0,0,1,2.82-.19,6,6,0,0,1,4.41,4.59A5.21,5.21,0,0,1,29.28,25a5.71,5.71,0,0,0-.51.58Z" transform="translate(-0.5 -8.12)"/></svg>