<svg id="Layer_1" data-name="Layer 1" xmlns="http://www.w3.org/2000/svg" viewBox="0 0 47 26.53"><defs><style>.cls-1{fill:#fff;stroke:#1d1c1a;stroke-miterlimit:10;}.cls-2{fill:#f0989b;}.cls-3{fill:#e96768;}.cls-4{fill:#e64040;}</style></defs><path class="cls-1" d="M23.35,21.89" transform="translate(-0.5 -10.74)"/><path class="cls-2" d="M47.29,26.56a10,10,0,0,1-8.82,7.58c-.14-.62.37-.89.7-1.24a6.92,6.92,0,0,0,.54-9.71,7,7,0,0,0-.54-.55,6.52,6.52,0,0,0-7-2c-.57.15-1.15.25-1.67.42a3.63,3.63,0,0,1-4.06-1.31,7.29,7.29,0,0,1-.73-.93,19.09,19.09,0,0,0-3.82-4.85,1.18,1.18,0,0,1-.48-.78c3.13-2.57,6.4-2.15,8.69,1.15,1.53,2.22,1.67,2.3,4.32,1.58a10.22,10.22,0,0,1,7.91.55,10.22,10.22,0,0,1,4.8,6.47,6,6,0,0,1,.33,1.56A7.31,7.31,0,0,1,47.29,26.56Z" transform="translate(-0.5 -10.74)"/><path class="cls-3" d="M37.78,34.39a6.82,6.82,0,0,1-7.57,0,18.85,18.85,0,0,1-2.33-1.55,2.92,2.92,0,0,0-3.67-.08l-3,2A13,13,0,0,1,3,31.8,13.22,13.22,0,0,1,5.92,13.43c.3-.22.62-.43.94-.62a12.73,12.73,0,0,1,14.33.27c.2.57-.25,1-.47,1.38a5.23,5.23,0,0,0,4.39,7.78,3.34,3.34,0,0,1,3.53,3.06,17.13,17.13,0,0,0,.72,2.84,8.77,8.77,0,0,0,7.06,5.65A1.86,1.86,0,0,1,37.78,34.39Z" transform="translate(-0.5 -10.74)"/><path class="cls-4" d="M37.78,34.39a11,11,0,0,1-5.87-2.2,10.09,10.09,0,0,1-3.48-6.25c-.42-2.12-.6-3.21-3.74-3.36a5.57,5.57,0,0,1-4.88-6.15,5.23,5.23,0,0,1,.33-1.35,18.3,18.3,0,0,1,1.05-1.95h.2a20.65,20.65,0,0,1,4.1,4.74c2.42,3.78,3.19,3.36,6.32,2.49a7.29,7.29,0,0,1,3.79-.26,8,8,0,0,1,5.92,6.17,7,7,0,0,1-2.37,7.06,10,10,0,0,0-.68.78Z" transform="translate(-0.5 -10.74)"/></svg>