<svg id="Layer_1" data-name="Layer 1" xmlns="http://www.w3.org/2000/svg" viewBox="0 0 71 40.08"><defs><style>.cls-1{fill:#fff;stroke:#1d1c1a;stroke-miterlimit:10;}.cls-2{fill:#f0989b;}.cls-3{fill:#e96768;}.cls-4{fill:#e64040;}</style></defs><path class="cls-1" d="M35,32.81" transform="translate(-0.5 -15.96)"/><path class="cls-2" d="M71.19,39.87A15.17,15.17,0,0,1,57.86,51.32c-.21-.94.55-1.35,1-1.88a10.44,10.44,0,0,0,.82-14.67,9.07,9.07,0,0,0-.82-.82,9.84,9.84,0,0,0-10.53-3.07c-.86.23-1.74.38-2.52.63a5.43,5.43,0,0,1-6.12-2,9.81,9.81,0,0,1-1.11-1.39,29,29,0,0,0-5.77-7.34,1.81,1.81,0,0,1-.73-1.17c4.74-3.88,9.67-3.25,13.13,1.73,2.31,3.35,2.52,3.47,6.52,2.38a15.51,15.51,0,0,1,11.95.84A15.46,15.46,0,0,1,71,34.36a9.92,9.92,0,0,1,.5,2.36A11.5,11.5,0,0,1,71.19,39.87Z" transform="translate(-0.5 -15.96)"/><path class="cls-3" d="M56.82,51.7a10.35,10.35,0,0,1-11.44,0,30.83,30.83,0,0,1-3.53-2.34,4.41,4.41,0,0,0-5.54-.13l-4.54,3.05A19.64,19.64,0,0,1,4.23,47.79,20,20,0,0,1,8.69,20q.69-.5,1.41-.93a19.23,19.23,0,0,1,21.65.4c.3.87-.38,1.45-.71,2.08a8,8,0,0,0,3.07,10.77,7.8,7.8,0,0,0,3.56,1A5.05,5.05,0,0,1,43,38a24.31,24.31,0,0,0,1.09,4.29,13.21,13.21,0,0,0,10.66,8.53A2.94,2.94,0,0,1,56.82,51.7Z" transform="translate(-0.5 -15.96)"/><path class="cls-4" d="M56.82,51.7A16.6,16.6,0,0,1,48,48.37a15.23,15.23,0,0,1-5.26-9.44c-.63-3.2-.91-4.85-5.65-5.08a8.39,8.39,0,0,1-7.37-9.28,9,9,0,0,1,.49-2.05,32,32,0,0,1,1.59-2.94h.3a31,31,0,0,1,6.2,7.16c3.66,5.71,4.81,5.08,9.55,3.76a10.91,10.91,0,0,1,5.72-.38,12.11,12.11,0,0,1,8.95,9.31A10.54,10.54,0,0,1,58.89,50.1a14.36,14.36,0,0,0-1,1.17Z" transform="translate(-0.5 -15.96)"/></svg>