<svg id="Layer_1" data-name="Layer 1" xmlns="http://www.w3.org/2000/svg" viewBox="0 0 151 85.23"><defs><style>.cls-1{fill:#fff;stroke:#1d1c1a;stroke-miterlimit:10;}.cls-2{fill:#f0989b;}.cls-3{fill:#e96768;}.cls-4{fill:#e64040;}</style></defs><path class="cls-1" d="M73.93,69.21" transform="translate(-0.5 -33.38)"/><path class="cls-2" d="M150.83,84.22a32.21,32.21,0,0,1-28.35,24.35c-.43-2,1.18-2.86,2.25-4a22.09,22.09,0,0,0,0-32.94,20.94,20.94,0,0,0-22.4-6.53c-1.82.48-3.7.81-5.36,1.35a11.59,11.59,0,0,1-13-4.22,19.37,19.37,0,0,1-2.36-3,61.91,61.91,0,0,0-12.27-15.6,3.83,3.83,0,0,1-1.56-2.48c10.08-8.27,20.58-6.92,27.93,3.67,4.93,7.12,5.36,7.39,13.88,5.07A33,33,0,0,1,135,51.71,32.88,32.88,0,0,1,150.41,72.5a20.05,20.05,0,0,1,1.07,5A24.29,24.29,0,0,1,150.83,84.22Z" transform="translate(-0.5 -33.38)"/><path class="cls-3" d="M120.29,109.38a22,22,0,0,1-24.34,0,63.17,63.17,0,0,1-7.5-5,9.37,9.37,0,0,0-11.79-.27L67,110.63a41.77,41.77,0,0,1-58.58-9.56,42.49,42.49,0,0,1,9.49-59c1-.7,2-1.37,3-2a40.93,40.93,0,0,1,46,.86c.64,1.84-.8,3.08-1.5,4.43A16.92,16.92,0,0,0,72,68.24a16.47,16.47,0,0,0,7.56,2.1,10.76,10.76,0,0,1,11.37,9.83,52.17,52.17,0,0,0,2.3,9.13,28.12,28.12,0,0,0,22.67,18.14A6.22,6.22,0,0,1,120.29,109.38Z" transform="translate(-0.5 -33.38)"/><path class="cls-4" d="M120.29,109.38a35.13,35.13,0,0,1-18.87-7.07,32.46,32.46,0,0,1-11.2-20.09c-1.34-6.8-1.93-10.31-12-10.8A17.84,17.84,0,0,1,62.55,51.68a18.05,18.05,0,0,1,1-4.34A63.92,63.92,0,0,1,67,41.08h.64A66.2,66.2,0,0,1,80.79,56.3c7.77,12.15,10.23,10.8,20.31,8a23.21,23.21,0,0,1,12.17-.81,25.78,25.78,0,0,1,19,19.81A22.39,22.39,0,0,1,124.68,106a32.61,32.61,0,0,0-2.2,2.49Z" transform="translate(-0.5 -33.38)"/></svg>