<svg id="Layer_1" data-name="Layer 1" xmlns="http://www.w3.org/2000/svg" viewBox="0 0 143 80.72"><defs><style>.cls-1{fill:#fff;stroke:#1d1c1a;stroke-miterlimit:10;}.cls-2{fill:#f0989b;}.cls-3{fill:#e96768;}.cls-4{fill:#e64040;}</style></defs><path class="cls-1" d="M70,65.57" transform="translate(-0.5 -31.64)"/><path class="cls-2" d="M142.87,79.79A30.52,30.52,0,0,1,116,102.85c-.41-1.89,1.12-2.71,2.13-3.79a21,21,0,0,0,1.65-29.53,21.54,21.54,0,0,0-1.65-1.66,19.85,19.85,0,0,0-21.21-6.19c-1.73.46-3.51.77-5.08,1.28a11,11,0,0,1-12.33-4,18.36,18.36,0,0,1-2.23-2.81A58.54,58.54,0,0,0,65.67,41.38,3.61,3.61,0,0,1,64.2,39c9.54-7.82,19.49-6.55,26.44,3.48,4.67,6.75,5.08,7,13.15,4.8A31.25,31.25,0,0,1,127.85,49a31.11,31.11,0,0,1,14.61,19.69,18.82,18.82,0,0,1,1,4.75A23,23,0,0,1,142.87,79.79Z" transform="translate(-0.5 -31.64)"/><path class="cls-3" d="M113.94,103.61a20.77,20.77,0,0,1-23,0,58.67,58.67,0,0,1-7.11-4.7,8.88,8.88,0,0,0-11.16-.26l-9.14,6.14A39.55,39.55,0,0,1,8,95.74a40.24,40.24,0,0,1,9-55.9c.92-.67,1.87-1.3,2.84-1.88a38.74,38.74,0,0,1,43.6.81c.61,1.74-.76,2.92-1.42,4.2A16,16,0,0,0,68.2,64.65a15.69,15.69,0,0,0,7.17,2A10.18,10.18,0,0,1,86.13,76a48.6,48.6,0,0,0,2.18,8.64,26.63,26.63,0,0,0,21.47,17.18A5.89,5.89,0,0,1,113.94,103.61Z" transform="translate(-0.5 -31.64)"/><path class="cls-4" d="M113.94,103.61a33.24,33.24,0,0,1-17.87-6.69,30.73,30.73,0,0,1-10.6-19c-1.27-6.44-1.83-9.76-11.37-10.22A16.91,16.91,0,0,1,59.26,49a17.47,17.47,0,0,1,1-4.11,59.32,59.32,0,0,1,3.2-5.93h.61A62.35,62.35,0,0,1,76.53,53.35c7.36,11.5,9.7,10.22,19.24,7.57a22,22,0,0,1,11.52-.77,24.42,24.42,0,0,1,18,18.77,21.19,21.19,0,0,1-7.21,21.47,31.05,31.05,0,0,0-2.08,2.36Z" transform="translate(-0.5 -31.64)"/></svg>