<svg id="Layer_1" data-name="Layer 1" xmlns="http://www.w3.org/2000/svg" viewBox="0 0 119 67.17"><defs><style>.cls-1{fill:#fff;stroke:#1d1c1a;stroke-miterlimit:10;}.cls-2{fill:#f0989b;}.cls-3{fill:#e96768;}.cls-4{fill:#e64040;}</style></defs><path class="cls-1" d="M58.37,54.65" transform="translate(-0.5 -26.41)"/><path class="cls-2" d="M119,66.48A25.42,25.42,0,0,1,96.63,85.67c-.34-1.57.93-2.25,1.78-3.15A17.49,17.49,0,0,0,99.78,58a18,18,0,0,0-1.37-1.39,16.54,16.54,0,0,0-17.66-5.15c-1.43.39-2.91.64-4.22,1.07a9.14,9.14,0,0,1-10.27-3.32,15.48,15.48,0,0,1-1.85-2.34,48.73,48.73,0,0,0-9.68-12.3,3,3,0,0,1-1.22-2c7.94-6.51,16.22-5.44,22,2.9,3.89,5.61,4.23,5.83,10.94,4a26,26,0,0,1,20,1.4,25.9,25.9,0,0,1,12.17,16.38,15.8,15.8,0,0,1,.84,4A19.13,19.13,0,0,1,119,66.48Z" transform="translate(-0.5 -26.41)"/><path class="cls-3" d="M94.9,86.31a17.28,17.28,0,0,1-19.17,0,48.53,48.53,0,0,1-5.92-3.92,7.39,7.39,0,0,0-9.29-.21l-7.6,5.11A32.92,32.92,0,0,1,6.75,79.75a33.47,33.47,0,0,1,7.48-46.51c.76-.56,1.55-1.08,2.37-1.57a32.23,32.23,0,0,1,36.28.68c.5,1.45-.64,2.43-1.19,3.49a13.34,13.34,0,0,0,5.15,18,13,13,0,0,0,6,1.65,8.48,8.48,0,0,1,9,7.75,40.49,40.49,0,0,0,1.81,7.19,22.17,22.17,0,0,0,17.87,14.3A4.84,4.84,0,0,1,94.9,86.31Z" transform="translate(-0.5 -26.41)"/><path class="cls-4" d="M94.9,86.31A27.62,27.62,0,0,1,80,80.73,25.54,25.54,0,0,1,71.21,64.9c-1.06-5.36-1.52-8.12-9.46-8.51a14.11,14.11,0,0,1-11.53-19,48.76,48.76,0,0,1,2.66-4.93h.5a52.06,52.06,0,0,1,10.39,12c6.13,9.57,8.07,8.51,16,6.3a18.39,18.39,0,0,1,9.59-.64,20.32,20.32,0,0,1,15,15.62,17.64,17.64,0,0,1-6,17.87,25,25,0,0,0-1.73,2Z" transform="translate(-0.5 -26.41)"/></svg>