<svg id="Layer_1" data-name="Layer 1" xmlns="http://www.w3.org/2000/svg" viewBox="0 0 59 33.3"><defs><style>.cls-1{fill:#fff;stroke:#1d1c1a;stroke-miterlimit:10;}.cls-2{fill:#f0989b;}.cls-3{fill:#e96768;}.cls-4{fill:#e64040;}</style></defs><path class="cls-1" d="M29.19,27.35" transform="translate(-0.5 -13.35)"/><path class="cls-2" d="M59.24,33.21a12.6,12.6,0,0,1-11.08,9.52c-.17-.78.46-1.12.88-1.56A8.68,8.68,0,0,0,49.72,29,7.27,7.27,0,0,0,49,28.3a8.19,8.19,0,0,0-8.75-2.56c-.71.19-1.45.32-2.1.53a4.51,4.51,0,0,1-5.08-1.64,8.1,8.1,0,0,1-.93-1.17,24.2,24.2,0,0,0-4.79-6.09,1.53,1.53,0,0,1-.61-1c3.94-3.23,8-2.7,10.91,1.43,1.93,2.79,2.1,2.89,5.43,2a12.91,12.91,0,0,1,9.92.7,12.86,12.86,0,0,1,6,8.12,7.45,7.45,0,0,1,.42,2A9.52,9.52,0,0,1,59.24,33.21Z" transform="translate(-0.5 -13.35)"/><path class="cls-3" d="M47.3,43a8.55,8.55,0,0,1-9.5,0,22.19,22.19,0,0,1-2.93-1.94,3.67,3.67,0,0,0-4.61-.1l-3.77,2.53A16.32,16.32,0,0,1,3.6,39.79,16.59,16.59,0,0,1,7.31,16.73q.57-.4,1.17-.78a16,16,0,0,1,18,.34c.25.72-.32,1.2-.59,1.73a6.62,6.62,0,0,0,2.55,9,6.42,6.42,0,0,0,3,.82,4.2,4.2,0,0,1,4.44,3.84,20.07,20.07,0,0,0,.9,3.57,11,11,0,0,0,8.86,7.08A2.44,2.44,0,0,1,47.3,43Z" transform="translate(-0.5 -13.35)"/><path class="cls-4" d="M47.3,43a13.74,13.74,0,0,1-7.37-2.76,12.67,12.67,0,0,1-4.37-7.85c-.53-2.66-.76-4-4.69-4.22a7,7,0,0,1-6.13-7.71,7.15,7.15,0,0,1,.41-1.7,23.12,23.12,0,0,1,1.32-2.45h.25a25.9,25.9,0,0,1,5.15,5.95c3,4.75,4,4.22,7.94,3.13a9,9,0,0,1,4.75-.32A10.07,10.07,0,0,1,52,32.85a8.75,8.75,0,0,1-3,8.86c-.3.31-.59.64-.86,1Z" transform="translate(-0.5 -13.35)"/></svg>