<svg id="Layer_1" data-name="Layer 1" xmlns="http://www.w3.org/2000/svg" viewBox="0 0 75 42.33"><defs><style>.cls-1{fill:#fff;stroke:#1d1c1a;stroke-miterlimit:10;}.cls-2{fill:#f0989b;}.cls-3{fill:#e96768;}.cls-4{fill:#e64040;}</style></defs><path class="cls-1" d="M37,34.63" transform="translate(-0.5 -16.83)"/><path class="cls-2" d="M75.17,42.08a16,16,0,0,1-14.08,12.1c-.22-1,.58-1.42,1.12-2a11,11,0,0,0,.86-15.48,11.9,11.9,0,0,0-.86-.88,10.41,10.41,0,0,0-11.13-3.24c-.91.24-1.84.4-2.66.67A5.76,5.76,0,0,1,42,31.17a9.76,9.76,0,0,1-1.17-1.48,30.78,30.78,0,0,0-6.1-7.75,1.87,1.87,0,0,1-.77-1.23c5-4.11,10.22-3.44,13.87,1.82,2.45,3.54,2.66,3.68,6.89,2.52a16.34,16.34,0,0,1,12.62.89A16.35,16.35,0,0,1,75,36.26a10.23,10.23,0,0,1,.53,2.5A11.93,11.93,0,0,1,75.17,42.08Z" transform="translate(-0.5 -16.83)"/><path class="cls-3" d="M60,54.58a10.9,10.9,0,0,1-12.09,0,30.48,30.48,0,0,1-3.73-2.47A4.65,4.65,0,0,0,38.33,52L33.54,55.2a20.75,20.75,0,0,1-29.1-4.75A21.12,21.12,0,0,1,9.15,21.13c.49-.35,1-.68,1.49-1a20.35,20.35,0,0,1,22.87.43c.32.92-.4,1.53-.75,2.2A8.4,8.4,0,0,0,36,34.15a8.25,8.25,0,0,0,3.76,1,5.34,5.34,0,0,1,5.64,4.88,26.13,26.13,0,0,0,1.14,4.53,14,14,0,0,0,11.26,9A3.08,3.08,0,0,1,60,54.58Z" transform="translate(-0.5 -16.83)"/><path class="cls-4" d="M60,54.58a17.43,17.43,0,0,1-9.37-3.51,16.13,16.13,0,0,1-5.57-10c-.66-3.38-1-5.12-6-5.36a8.87,8.87,0,0,1-7.78-9.81,8.75,8.75,0,0,1,.51-2.15,31.24,31.24,0,0,1,1.68-3.12h.32a33,33,0,0,1,6.55,7.57c3.86,6,5.08,5.36,10.09,4a11.59,11.59,0,0,1,6-.41A12.82,12.82,0,0,1,66,41.63a11.12,11.12,0,0,1-3.78,11.26,14.22,14.22,0,0,0-1.09,1.24Z" transform="translate(-0.5 -16.83)"/></svg>