<svg id="Layer_1" data-name="Layer 1" xmlns="http://www.w3.org/2000/svg" viewBox="0 0 113 63.78"><defs><style>.cls-1{fill:#fff;stroke:#1d1c1a;stroke-miterlimit:10;}.cls-2{fill:#f0989b;}.cls-3{fill:#e96768;}.cls-4{fill:#e64040;}</style></defs><path class="cls-1" d="M55.45,51.92" transform="translate(-0.5 -25.11)"/><path class="cls-2" d="M113,63.15A24.11,24.11,0,0,1,91.79,81.38c-.33-1.5.88-2.15,1.68-3a16.61,16.61,0,0,0,1.3-23.34,16.07,16.07,0,0,0-1.3-1.31,15.67,15.67,0,0,0-16.76-4.89c-1.37.36-2.77.6-4,1A8.67,8.67,0,0,1,63,46.71a15.21,15.21,0,0,1-1.77-2.23A46,46,0,0,0,52,32.81,2.83,2.83,0,0,1,50.84,31c7.54-6.19,15.4-5.18,20.89,2.74,3.69,5.34,4,5.54,10.39,3.8a24.64,24.64,0,0,1,19,1.34,24.57,24.57,0,0,1,11.55,15.55,14.76,14.76,0,0,1,.8,3.76A18,18,0,0,1,113,63.15Z" transform="translate(-0.5 -25.11)"/><path class="cls-3" d="M90.14,82a16.4,16.4,0,0,1-18.21,0,45.44,45.44,0,0,1-5.61-3.72,7,7,0,0,0-8.83-.2l-7.21,4.85A31.25,31.25,0,0,1,6.44,75.76a31.79,31.79,0,0,1,7.1-44.17c.72-.53,1.47-1,2.24-1.49a30.63,30.63,0,0,1,34.46.64c.48,1.38-.61,2.31-1.13,3.32A12.64,12.64,0,0,0,54,51.19a12.5,12.5,0,0,0,5.66,1.58,8,8,0,0,1,8.5,7.35A39.06,39.06,0,0,0,69.89,67a21.05,21.05,0,0,0,17,13.58A4.62,4.62,0,0,1,90.14,82Z" transform="translate(-0.5 -25.11)"/><path class="cls-4" d="M90.14,82A26.23,26.23,0,0,1,76,76.69a24.34,24.34,0,0,1-8.38-15c-1-5.09-1.44-7.72-9-8.08A13.36,13.36,0,0,1,46.93,38.8a14,14,0,0,1,.78-3.25,45.86,45.86,0,0,1,2.53-4.68h.48a49.51,49.51,0,0,1,9.86,11.39c5.82,9.09,7.66,8.08,15.2,6a17.52,17.52,0,0,1,9.11-.6A19.26,19.26,0,0,1,99.12,62.47a16.74,16.74,0,0,1-5.69,17,22.25,22.25,0,0,0-1.64,1.86Z" transform="translate(-0.5 -25.11)"/></svg>