<svg id="Layer_1" data-name="Layer 1" xmlns="http://www.w3.org/2000/svg" viewBox="0 0 179 101.04"><defs><style>.cls-1{fill:#fff;stroke:#1d1c1a;stroke-miterlimit:10;}.cls-2{fill:#f0989b;}.cls-3{fill:#e96768;}.cls-4{fill:#e64040;}</style></defs><path class="cls-1" d="M87.54,82" transform="translate(-0.5 -39.48)"/><path class="cls-2" d="M178.71,99.75a38.19,38.19,0,0,1-33.61,28.86c-.51-2.36,1.4-3.39,2.67-4.73a26.33,26.33,0,0,0,2.07-37,25.39,25.39,0,0,0-2.07-2.08,24.85,24.85,0,0,0-26.56-7.74c-2.16.57-4.38,1-6.35,1.6a13.74,13.74,0,0,1-15.44-5,24.38,24.38,0,0,1-2.79-3.52,73.55,73.55,0,0,0-14.55-18.5,4.5,4.5,0,0,1-1.84-2.94c11.94-9.79,24.39-8.19,33.1,4.35,5.84,8.45,6.35,8.77,16.45,6a39.08,39.08,0,0,1,30.12,2.11A39,39,0,0,1,178.2,85.86a23.31,23.31,0,0,1,1.27,6A28.67,28.67,0,0,1,178.71,99.75Z" transform="translate(-0.5 -39.48)"/><path class="cls-3" d="M142.5,129.57a26,26,0,0,1-28.85,0,72.8,72.8,0,0,1-8.89-5.89,11.12,11.12,0,0,0-14-.32l-11.43,7.69A49.51,49.51,0,0,1,9.9,119.71a50.36,50.36,0,0,1,11.25-70c1.15-.84,2.34-1.63,3.56-2.37a48.49,48.49,0,0,1,54.57,1c.77,2.18-1,3.65-1.77,5.25A20,20,0,0,0,85.24,80.8a19.64,19.64,0,0,0,9,2.49,12.74,12.74,0,0,1,13.47,11.65,61.69,61.69,0,0,0,2.73,10.82,33.36,33.36,0,0,0,26.88,21.51A7.33,7.33,0,0,1,142.5,129.57Z" transform="translate(-0.5 -39.48)"/><path class="cls-4" d="M142.5,129.57a41.61,41.61,0,0,1-22.37-8.38,38.49,38.49,0,0,1-13.27-23.81c-1.59-8.07-2.29-12.23-14.23-12.81a21.15,21.15,0,0,1-18.58-23.4A21.53,21.53,0,0,1,75.28,56a76.91,76.91,0,0,1,4-7.43h.77A78.88,78.88,0,0,1,95.68,66.65c9.21,14.4,12.13,12.8,24.07,9.48a27.55,27.55,0,0,1,14.43-1,30.55,30.55,0,0,1,22.55,23.49,26.54,26.54,0,0,1-9,26.88,38.47,38.47,0,0,0-2.61,3Z" transform="translate(-0.5 -39.48)"/></svg>