<svg id="Layer_1" data-name="Layer 1" xmlns="http://www.w3.org/2000/svg" viewBox="0 0 56 31.61"><defs><style>.cls-1{fill:#fff;stroke:#1d1c1a;stroke-miterlimit:10;}.cls-2{fill:#f0989b;}.cls-3{fill:#e96768;}.cls-4{fill:#e64040;}</style></defs><path class="cls-1" d="M27.73,26" transform="translate(-0.5 -12.7)"/><path class="cls-2" d="M56.25,31.55a12,12,0,0,1-10.51,9c-.16-.74.44-1.06.83-1.48a8.24,8.24,0,0,0,.65-11.57,8,8,0,0,0-.65-.65,7.76,7.76,0,0,0-8.3-2.42c-.68.18-1.38.3-2,.5a4.29,4.29,0,0,1-4.83-1.56,7.72,7.72,0,0,1-.88-1.1A22.62,22.62,0,0,0,26,16.51a1.43,1.43,0,0,1-.57-.92C29.18,12.52,33.08,13,35.8,17c1.83,2.64,2,2.74,5.15,1.88a12.24,12.24,0,0,1,9.42.66,12.15,12.15,0,0,1,5.72,7.71,7,7,0,0,1,.4,1.87A8.64,8.64,0,0,1,56.25,31.55Z" transform="translate(-0.5 -12.7)"/><path class="cls-3" d="M44.92,40.88a8.13,8.13,0,0,1-9,0A23.47,23.47,0,0,1,33.12,39a3.48,3.48,0,0,0-4.37-.1l-3.58,2.4A15.49,15.49,0,0,1,3.44,37.8,15.75,15.75,0,0,1,7,15.91c.36-.27.73-.51,1.11-.74a15.17,15.17,0,0,1,17.08.32c.24.68-.3,1.14-.56,1.64A6.27,6.27,0,0,0,27,25.62a6.14,6.14,0,0,0,2.81.78A4,4,0,0,1,34,30.05a18.83,18.83,0,0,0,.86,3.38,10.42,10.42,0,0,0,8.4,6.73A2.28,2.28,0,0,1,44.92,40.88Z" transform="translate(-0.5 -12.7)"/><path class="cls-4" d="M44.92,40.88a13,13,0,0,1-7-2.62,12.07,12.07,0,0,1-4.16-7.45c-.49-2.53-.71-3.83-4.45-4a6.61,6.61,0,0,1-5.81-7.32,6.42,6.42,0,0,1,.39-1.61,22.51,22.51,0,0,1,1.25-2.32h.24a24.72,24.72,0,0,1,4.89,5.65c2.88,4.5,3.79,4,7.53,3a8.65,8.65,0,0,1,4.51-.3,9.57,9.57,0,0,1,7.06,7.35,8.31,8.31,0,0,1-2.83,8.41,11.84,11.84,0,0,0-.81.92Z" transform="translate(-0.5 -12.7)"/></svg>