<svg id="Layer_1" data-name="Layer 1" xmlns="http://www.w3.org/2000/svg" viewBox="0 0 95 53.62"><defs><style>.cls-1{fill:#fff;stroke:#1d1c1a;stroke-miterlimit:10;}.cls-2{fill:#f0989b;}.cls-3{fill:#e96768;}.cls-4{fill:#e64040;}</style></defs><path class="cls-1" d="M46.7,43.73" transform="translate(-0.5 -21.19)"/><path class="cls-2" d="M95.08,53.17A20.27,20.27,0,0,1,77.24,68.49C77,67.24,78,66.69,78.66,66a14,14,0,0,0,1.1-19.62,12.69,12.69,0,0,0-1.1-1.1,13.17,13.17,0,0,0-14.09-4.11c-1.15.3-2.33.51-3.38.85A7.31,7.31,0,0,1,53,39.35a12.67,12.67,0,0,1-1.48-1.87,38.93,38.93,0,0,0-7.72-9.82,2.42,2.42,0,0,1-1-1.56c6.34-5.2,13-4.35,17.57,2.31,3.1,4.48,3.37,4.65,8.73,3.19a20.74,20.74,0,0,1,16,1.12A20.66,20.66,0,0,1,94.81,45.8,12.64,12.64,0,0,1,95.49,49,15.29,15.29,0,0,1,95.08,53.17Z" transform="translate(-0.5 -21.19)"/><path class="cls-3" d="M75.86,69a13.8,13.8,0,0,1-15.31,0,39.71,39.71,0,0,1-4.72-3.12,5.89,5.89,0,0,0-7.41-.17l-6.07,4.07a26.27,26.27,0,0,1-36.86-6,26.72,26.72,0,0,1,6-37.13q.91-.67,1.89-1.26a25.73,25.73,0,0,1,29,.55c.41,1.15-.5,1.93-.94,2.78a10.57,10.57,0,0,0,8.87,15.73,6.76,6.76,0,0,1,7.14,6.18,33.4,33.4,0,0,0,1.45,5.75A17.7,17.7,0,0,0,73.1,67.78,3.92,3.92,0,0,1,75.86,69Z" transform="translate(-0.5 -21.19)"/><path class="cls-4" d="M75.86,69A22.06,22.06,0,0,1,64,64.55a20.41,20.41,0,0,1-7-12.64c-.85-4.28-1.22-6.48-7.56-6.79A11.28,11.28,0,0,1,40.19,30,39.28,39.28,0,0,1,42.31,26h.41A41.72,41.72,0,0,1,51,35.61c4.89,7.64,6.44,6.79,12.78,5a14.63,14.63,0,0,1,7.65-.51,16.2,16.2,0,0,1,12,12.46,14.08,14.08,0,0,1-4.78,14.27,20.78,20.78,0,0,0-1.39,1.57Z" transform="translate(-0.5 -21.19)"/></svg>