<svg id="Layer_1" data-name="Layer 1" xmlns="http://www.w3.org/2000/svg" viewBox="0 0 15 8.47"><defs><style>.cls-1{fill:#fff;stroke:#1d1c1a;stroke-miterlimit:10;}.cls-2{fill:#f0989b;}.cls-3{fill:#e96768;}.cls-4{fill:#e64040;}</style></defs><path class="cls-1" d="M7.79,7.33" transform="translate(-0.5 -3.77)"/><path class="cls-2" d="M15.43,8.82a3.21,3.21,0,0,1-2.81,2.42c0-.2.11-.29.22-.4A2.2,2.2,0,0,0,13,7.74a1.37,1.37,0,0,0-.17-.17,2.06,2.06,0,0,0-2.22-.65l-.54.13a1.14,1.14,0,0,1-1.29-.42,1.54,1.54,0,0,1-.23-.29A6.58,6.58,0,0,0,7.34,4.79a.38.38,0,0,1-.16-.25A1.74,1.74,0,0,1,10,4.91c.49.7.53.73,1.37.5a3.27,3.27,0,0,1,2.53.18,3.24,3.24,0,0,1,1.53,2.06,2.13,2.13,0,0,1,.11.5A2.15,2.15,0,0,1,15.43,8.82Z" transform="translate(-0.5 -3.77)"/><path class="cls-3" d="M12.4,11.32a2.21,2.21,0,0,1-2.42,0,5.33,5.33,0,0,1-.74-.5.93.93,0,0,0-1.17,0l-1,.64a4.15,4.15,0,0,1-5.82-.95,4.21,4.21,0,0,1,.94-5.86l.3-.2a4.07,4.07,0,0,1,4.57.08C7.17,4.7,7,4.82,7,5A1.69,1.69,0,0,0,7.6,7.23a1.66,1.66,0,0,0,.75.21,1.06,1.06,0,0,1,1.13,1,5.51,5.51,0,0,0,.23.91A2.77,2.77,0,0,0,12,11.12.65.65,0,0,1,12.4,11.32Z" transform="translate(-0.5 -3.77)"/><path class="cls-4" d="M12.4,11.32a3.45,3.45,0,0,1-1.87-.71,3.19,3.19,0,0,1-1.12-2c-.13-.68-.19-1-1.19-1.07a1.78,1.78,0,0,1-1.56-2,1.7,1.7,0,0,1,.11-.43c.1-.21.21-.42.33-.62h.07A6.53,6.53,0,0,1,8.48,6c.77,1.21,1,1.08,2,.8a2.27,2.27,0,0,1,1.21-.08,2.54,2.54,0,0,1,1.89,2A2.22,2.22,0,0,1,12.84,11a2.62,2.62,0,0,0-.22.25Z" transform="translate(-0.5 -3.77)"/></svg>