<svg id="Layer_1" data-name="Layer 1" xmlns="http://www.w3.org/2000/svg" viewBox="0 0 31 17.5"><defs><style>.cls-1{fill:#fff;stroke:#1d1c1a;stroke-miterlimit:10;}.cls-2{fill:#f0989b;}.cls-3{fill:#e96768;}.cls-4{fill:#e64040;}</style></defs><path class="cls-1" d="M15.57,14.61" transform="translate(-0.5 -7.25)"/><path class="cls-2" d="M31.36,17.69a6.61,6.61,0,0,1-5.82,5c-.09-.41.24-.59.47-.82a4.55,4.55,0,0,0,.35-6.4c-.11-.13-.23-.25-.35-.37a4.34,4.34,0,0,0-4.6-1.34c-.38.1-.76.17-1.1.28a2.38,2.38,0,0,1-2.68-.86,4.59,4.59,0,0,1-.48-.61,12.87,12.87,0,0,0-2.52-3.21.76.76,0,0,1-.32-.51c2.07-1.69,4.22-1.42,5.73.76,1,1.46,1.1,1.52,2.85,1a6.81,6.81,0,0,1,5.22.36,6.81,6.81,0,0,1,3.17,4.27,4.5,4.5,0,0,1,.22,1A4.91,4.91,0,0,1,31.36,17.69Z" transform="translate(-0.5 -7.25)"/><path class="cls-3" d="M25.09,22.85a4.49,4.49,0,0,1-5,0,11.41,11.41,0,0,1-1.54-1,1.93,1.93,0,0,0-2.42,0l-2,1.33a8.59,8.59,0,0,1-12-2A8.73,8.73,0,0,1,4.08,9c.2-.15.4-.28.61-.41a8.38,8.38,0,0,1,9.45.18c.14.37-.16.63-.3.91a3.45,3.45,0,0,0,2.89,5.13,2.2,2.2,0,0,1,2.33,2,10.27,10.27,0,0,0,.48,1.87,5.74,5.74,0,0,0,4.65,3.72A1.27,1.27,0,0,1,25.09,22.85Z" transform="translate(-0.5 -7.25)"/><path class="cls-4" d="M25.09,22.85a7.18,7.18,0,0,1-3.87-1.45,6.66,6.66,0,0,1-2.3-4.12c-.28-1.4-.4-2.12-2.47-2.22A3.66,3.66,0,0,1,13.24,11a3.3,3.3,0,0,1,.21-.89,14.44,14.44,0,0,1,.69-1.29h.14A13.72,13.72,0,0,1,17,12c1.6,2.49,2.1,2.21,4.17,1.64a4.73,4.73,0,0,1,2.5-.17,5.31,5.31,0,0,1,3.91,4.07A4.6,4.6,0,0,1,26,22.16a5.47,5.47,0,0,0-.45.51Z" transform="translate(-0.5 -7.25)"/></svg>