<svg id="Layer_1" data-name="Layer 1" xmlns="http://www.w3.org/2000/svg" viewBox="0 0 149 84.11"><defs><style>.cls-1{fill:#fff;stroke:#1d1c1a;stroke-miterlimit:10;}.cls-2{fill:#f0989b;}.cls-3{fill:#e96768;}.cls-4{fill:#e64040;}</style></defs><path class="cls-1" d="M73,68.3" transform="translate(-0.5 -32.95)"/><path class="cls-2" d="M148.84,83.11a31.79,31.79,0,0,1-28,24c-.43-2,1.16-2.82,2.22-3.94a21.9,21.9,0,0,0,1.72-30.77,21.6,21.6,0,0,0-1.72-1.73A20.69,20.69,0,0,0,101,64.25c-1.79.48-3.65.8-5.29,1.33a11.43,11.43,0,0,1-12.85-4.15,21,21,0,0,1-2.32-2.93A61.17,61.17,0,0,0,68.41,43.1a3.78,3.78,0,0,1-1.54-2.45c9.95-8.16,20.31-6.82,27.56,3.62,4.86,7,5.28,7.3,13.69,5A32.47,32.47,0,0,1,133.19,51a32.43,32.43,0,0,1,15.23,20.51,20,20,0,0,1,1.06,5A24.06,24.06,0,0,1,148.84,83.11Z" transform="translate(-0.5 -32.95)"/><path class="cls-3" d="M118.7,107.94a21.67,21.67,0,0,1-24,0,60.77,60.77,0,0,1-7.4-4.9,9.27,9.27,0,0,0-11.64-.27l-9.52,6.4a41.2,41.2,0,0,1-57.8-9.44,41.92,41.92,0,0,1,9.36-58.24c1-.69,1.95-1.35,3-2a40.36,40.36,0,0,1,45.43.85c.63,1.81-.79,3-1.48,4.37A16.59,16.59,0,0,0,78.51,69.42a10.6,10.6,0,0,1,11.21,9.7,50.71,50.71,0,0,0,2.27,9A27.74,27.74,0,0,0,114.36,106,6.12,6.12,0,0,1,118.7,107.94Z" transform="translate(-0.5 -32.95)"/><path class="cls-4" d="M118.7,107.94a34.6,34.6,0,0,1-18.62-7A32,32,0,0,1,89,81.14C87.71,74.43,87.13,71,77.19,70.48A17.68,17.68,0,0,1,62.75,46.72a63.38,63.38,0,0,1,3.33-6.18h.63a65.15,65.15,0,0,1,13,15c7.67,12,10.1,10.65,20,7.88a23.09,23.09,0,0,1,12-.8,25.47,25.47,0,0,1,18.78,19.56A22.11,22.11,0,0,1,123,104.58a29.81,29.81,0,0,0-2.17,2.46Z" transform="translate(-0.5 -32.95)"/></svg>