<svg id="Layer_1" data-name="Layer 1" xmlns="http://www.w3.org/2000/svg" viewBox="0 0 309 174.42"><defs><style>.cls-1{fill:#fff;stroke:#1d1c1a;stroke-miterlimit:10;}.cls-2{fill:#f0989b;}.cls-3{fill:#e96768;}.cls-4{fill:#e64040;}</style></defs><path class="cls-1" d="M150.76,141.1" transform="translate(-0.5 -67.79)"/><path class="cls-2" d="M308.14,171.82a66,66,0,0,1-58,49.84c-.88-4.09,2.41-5.86,4.61-8.18a45.43,45.43,0,0,0,3.56-63.81,44.67,44.67,0,0,0-3.56-3.59,42.9,42.9,0,0,0-45.85-13.37c-3.72,1-7.56,1.65-11,2.76a23.7,23.7,0,0,1-26.65-8.62,41.74,41.74,0,0,1-4.83-6.08,126.29,126.29,0,0,0-25.11-31.93,7.84,7.84,0,0,1-3.18-5.08c20.62-16.91,42.11-14.15,57.14,7.51,10.09,14.59,11,15.14,28.4,10.39a67.43,67.43,0,0,1,52,3.64,67.24,67.24,0,0,1,31.59,42.54,40.64,40.64,0,0,1,2.19,10.28A49.69,49.69,0,0,1,308.14,171.82Z" transform="translate(-0.5 -67.79)"/><path class="cls-3" d="M245.62,223.31a44.88,44.88,0,0,1-49.79,0,128.23,128.23,0,0,1-15.35-10.16,19.19,19.19,0,0,0-24.13-.55l-19.74,13.26A85.46,85.46,0,0,1,16.73,206.3C-11,167.54-2.32,113.46,36.15,85.51q3-2.17,6.14-4.07A83.72,83.72,0,0,1,136.5,83.2c1.32,3.76-1.64,6.3-3.07,9.06a34.62,34.62,0,0,0,13.36,46.87,34,34,0,0,0,15.48,4.29,22,22,0,0,1,23.25,20.12,106.4,106.4,0,0,0,4.72,18.67,57.57,57.57,0,0,0,46.39,37.13A12.66,12.66,0,0,1,245.62,223.31Z" transform="translate(-0.5 -67.79)"/><path class="cls-4" d="M245.62,223.31A71.8,71.8,0,0,1,207,208.84a66.42,66.42,0,0,1-22.92-41.11c-2.74-13.92-3.95-21.1-24.57-22.1a36.51,36.51,0,0,1-32.06-40.39,37.17,37.17,0,0,1,2.12-8.89,131.74,131.74,0,0,1,6.91-12.82h1.32a135.39,135.39,0,0,1,27,31.17c15.9,24.86,20.94,22.09,41.56,16.35a47.8,47.8,0,0,1,24.9-1.66,52.75,52.75,0,0,1,38.93,40.55,45.82,45.82,0,0,1-15.57,46.41,63.93,63.93,0,0,0-4.5,5.09Z" transform="translate(-0.5 -67.79)"/></svg>