<svg id="Layer_1" data-name="Layer 1" xmlns="http://www.w3.org/2000/svg" viewBox="0 0 69 38.95"><defs><style>.cls-1{fill:#fff;stroke:#1d1c1a;stroke-miterlimit:10;}.cls-2{fill:#f0989b;}.cls-3{fill:#e96768;}.cls-4{fill:#e64040;}</style></defs><path class="cls-1" d="M34.05,31.9" transform="translate(-0.5 -15.53)"/><path class="cls-2" d="M69.2,38.76a14.72,14.72,0,0,1-13,11.12c-.2-.91.54-1.3,1-1.82a10.16,10.16,0,0,0,.8-14.25c-.26-.28-.52-.55-.8-.8A9.59,9.59,0,0,0,47,30c-.83.22-1.69.37-2.45.62a5.3,5.3,0,0,1-5.95-1.93,8.7,8.7,0,0,1-1.07-1.35A28.16,28.16,0,0,0,32,20.23a1.72,1.72,0,0,1-.71-1.14c4.6-3.77,9.4-3.16,12.76,1.68,2.25,3.26,2.44,3.38,6.34,2.32A15.07,15.07,0,0,1,62,23.9a15.06,15.06,0,0,1,7,9.5,9,9,0,0,1,.49,2.3A11.24,11.24,0,0,1,69.2,38.76Z" transform="translate(-0.5 -15.53)"/><path class="cls-3" d="M55.24,50.25a10,10,0,0,1-11.12,0A27.89,27.89,0,0,1,40.69,48a4.3,4.3,0,0,0-5.39-.12l-4.41,3A19.08,19.08,0,0,1,4.12,46.45a19.42,19.42,0,0,1,4.34-27c.44-.32.9-.62,1.37-.91a18.7,18.7,0,0,1,21,.4c.29.84-.37,1.4-.69,2a7.73,7.73,0,0,0,3,10.47,7.61,7.61,0,0,0,3.45,1,4.91,4.91,0,0,1,5.2,4.49,23.15,23.15,0,0,0,1,4.17,12.85,12.85,0,0,0,10.36,8.29A2.84,2.84,0,0,1,55.24,50.25Z" transform="translate(-0.5 -15.53)"/><path class="cls-4" d="M55.24,50.25A16,16,0,0,1,46.62,47a14.79,14.79,0,0,1-5.12-9.18c-.61-3.11-.88-4.71-5.49-4.93a8.16,8.16,0,0,1-7.16-9,8.5,8.5,0,0,1,.48-2A29.2,29.2,0,0,1,30.87,19h.29a30.41,30.41,0,0,1,6,7c3.55,5.55,4.68,4.93,9.28,3.65A10.73,10.73,0,0,1,52,29.28a11.77,11.77,0,0,1,8.69,9.06A10.22,10.22,0,0,1,57.24,48.7c-.35.36-.68.74-1,1.14Z" transform="translate(-0.5 -15.53)"/></svg>