<svg id="Camada_1" data-name="Camada 1" xmlns="http://www.w3.org/2000/svg" viewBox="0 0 32 20.48"><defs><style>.cls-1{fill:#fff;stroke:#1d1d1b;stroke-miterlimit:10;}.cls-2{fill:#f3999b;}.cls-3{fill:#ec6768;}.cls-4{fill:#e84040;}.cls-5{fill:#50388d;}</style></defs><path class="cls-1" d="M15.55,13.33" transform="translate(0 -4.76)"/><path class="cls-2" d="M31.89,17a7.46,7.46,0,0,1-.79,2.18c-1.17,2.3-2.87,3.61-5.23,3.69-.1-.49.25-.7.48-1a5.84,5.84,0,0,0,0-7.93,4.12,4.12,0,0,0-4.76-1.57c-.38.12-.78.19-1.16.32a2.31,2.31,0,0,1-2.77-1,3.9,3.9,0,0,1-.49-.71,15.18,15.18,0,0,0-2.62-3.75,1,1,0,0,1-.33-.61c2.15-2,4.38-1.66,5.93.89,1.05,1.71,1.16,1.77,3,1.22a6.24,6.24,0,0,1,5.39.43,7.86,7.86,0,0,1,3.27,5A4.84,4.84,0,0,1,32,15.33,6.3,6.3,0,0,1,31.89,17Z" transform="translate(0 -4.76)"/><path class="cls-3" d="M25.4,23c-1.71,1.33-3.44,1.12-5.17.06a14.73,14.73,0,0,1-1.59-1.2,1.82,1.82,0,0,0-2.5-.06c-.69.52-1.37,1-2.05,1.56C7.91,28.15.92,23,.09,16.5A10.86,10.86,0,0,1,4.3,6.36a7.86,7.86,0,0,1,9.78.21c.13.44-.17.73-.32,1.07-1.21,2.79.27,5.78,3,6,1.48.13,2.06.7,2.4,2.37a14.74,14.74,0,0,0,.49,2.21,6.22,6.22,0,0,0,4.82,4.36A1.25,1.25,0,0,1,25.4,23Z" transform="translate(0 -4.76)"/><path class="cls-4" d="M25.4,23a7,7,0,0,1-4-1.69A8.16,8.16,0,0,1,19,16.46c-.29-1.64-.41-2.48-2.55-2.58-2.34-.12-4-3.29-3.11-5.81.19-.52.48-1,.72-1.5h.13A15.34,15.34,0,0,1,17,10.25c1.64,2.92,2.17,2.57,4.31,1.92A4.47,4.47,0,0,1,23.91,12c2.18.65,3.48,2.37,4,4.77a5.78,5.78,0,0,1-1.62,5.46c-.17.19-.31.41-.46.61Z" transform="translate(0 -4.76)"/><path class="cls-5" d="M31.43,15.88" transform="translate(0 -4.76)"/></svg>