<svg id="Layer_1" data-name="Layer 1" xmlns="http://www.w3.org/2000/svg" viewBox="0 0 218.6 123.39"><defs><style>.cls-1{fill:#fff;stroke:#1d1c1a;stroke-miterlimit:10;}.cls-2{fill:#f0989b;}.cls-3{fill:#e96768;}.cls-4{fill:#e64040;}</style></defs><path class="cls-1" d="M116.47,59" transform="translate(-10.17 -7.14)"/><path class="cls-2" d="M227.81,80.74a46.64,46.64,0,0,1-41,35.25c-.62-2.89,1.7-4.14,3.26-5.78a32.16,32.16,0,0,0,2.52-45.15A35.53,35.53,0,0,0,190,62.52a30.38,30.38,0,0,0-32.44-9.46c-2.63.71-5.35,1.18-7.75,2A16.76,16.76,0,0,1,131,48.92a28.89,28.89,0,0,1-3.41-4.3A89.59,89.59,0,0,0,109.8,22a5.57,5.57,0,0,1-2.25-3.6c14.59-12,29.79-10,40.42,5.32,7.14,10.32,7.76,10.71,20.1,7.35a47.63,47.63,0,0,1,36.77,2.58,47.59,47.59,0,0,1,22.35,30.09A28.75,28.75,0,0,1,228.74,71,35.16,35.16,0,0,1,227.81,80.74Z" transform="translate(-10.17 -7.14)"/><path class="cls-3" d="M183.59,117.16a31.76,31.76,0,0,1-35.23,0A89.15,89.15,0,0,1,137.5,110a13.58,13.58,0,0,0-17.07-.39l-14,9.38a60.45,60.45,0,0,1-84.81-13.84A61.51,61.51,0,0,1,35.39,19.68q2.11-1.55,4.35-2.89A59.23,59.23,0,0,1,106.39,18c.93,2.66-1.17,4.46-2.18,6.41a24.49,24.49,0,0,0,9.45,33.15,24.11,24.11,0,0,0,11,3,15.55,15.55,0,0,1,16.45,14.22,75,75,0,0,0,3.33,13.21,40.73,40.73,0,0,0,32.82,26.27A9,9,0,0,1,183.59,117.16Z" transform="translate(-10.17 -7.14)"/><path class="cls-4" d="M183.59,117.16a50.76,50.76,0,0,1-27.32-10.24,47,47,0,0,1-16.21-29.08c-1.94-9.85-2.79-14.93-17.38-15.63A25.94,25.94,0,0,1,101.5,27.34a90.8,90.8,0,0,1,4.89-9.06h.93a95.52,95.52,0,0,1,19.08,22C137.65,57.91,141.22,56,155.81,51.89a33.8,33.8,0,0,1,17.61-1.17A37.32,37.32,0,0,1,201,79.41a32.44,32.44,0,0,1-11,32.83,43.51,43.51,0,0,0-3.18,3.6Z" transform="translate(-10.17 -7.14)"/></svg>